<svg xmlns="http://www.w3.org/2000/svg" viewBox="0 0 512 512" role="img" aria-labelledby="title desc">
  <title id="title">Cast Metadata &amp; TV Controls</title>
  <desc id="desc">A television with Cast waves and a Home Assistant style controller symbol.</desc>
  <defs>
    <linearGradient id="bg" x1="0" y1="0" x2="1" y2="1">
      <stop offset="0" stop-color="#0b172a"/>
      <stop offset="1" stop-color="#1596d2"/>
    </linearGradient>
    <linearGradient id="screen" x1="0" y1="0" x2="1" y2="1">
      <stop offset="0" stop-color="#20c7f4"/>
      <stop offset="1" stop-color="#1261a8"/>
    </linearGradient>
  </defs>
  <rect width="512" height="512" rx="112" fill="url(#bg)"/>
  <rect x="72" y="118" width="368" height="236" rx="28" fill="#ecf8ff"/>
  <rect x="92" y="138" width="328" height="196" rx="18" fill="url(#screen)"/>
  <path d="M192 388h128M232 352v36M280 352v36" stroke="#ecf8ff" stroke-width="24" stroke-linecap="round"/>
  <path d="M122 292a46 46 0 0 1 46 46M122 242a96 96 0 0 1 96 96M122 192a146 146 0 0 1 146 146" fill="none" stroke="#fff" stroke-width="20" stroke-linecap="round"/>
  <circle cx="122" cy="338" r="14" fill="#fff"/>
  <path d="M314 186h62a20 20 0 0 1 20 20v82a20 20 0 0 1-20 20h-62a20 20 0 0 1-20-20v-82a20 20 0 0 1 20-20Z" fill="#10243d" stroke="#fff" stroke-width="10"/>
  <circle cx="345" cy="223" r="12" fill="#20c7f4"/>
  <path d="M323 264h44M345 242v44" stroke="#fff" stroke-width="10" stroke-linecap="round"/>
</svg>
